<?xml version="1.0" encoding="utf-8"?>
<!-- Generator: Adobe Illustrator 16.0.0, SVG Export Plug-In . SVG Version: 6.00 Build 0)  -->
<!DOCTYPE svg PUBLIC "-//W3C//DTD SVG 1.1//EN" "http://www.w3.org/Graphics/SVG/1.1/DTD/svg11.dtd">
<svg version="1.1" id="Layer_1" xmlns="http://www.w3.org/2000/svg" xmlns:xlink="http://www.w3.org/1999/xlink" x="0px" y="0px"
	 width="792px" height="612px" viewBox="0 0 792 612" enable-background="new 0 0 792 612" xml:space="preserve">
<ellipse fill="#FFFFFF" stroke="#000000" stroke-width="3" stroke-miterlimit="10" cx="395.249" cy="224.271" rx="71.168" ry="17.188"/>
<path fill="#FFFFFF" stroke="#000000" stroke-miterlimit="10" d="M345.845,237.327"/>
<path fill="#FFFFFF" stroke="#000000" stroke-miterlimit="10" d="M330.268,231.771c-0.094-0.622-0.153-0.942-0.153-0.942
	L330.268,231.771z"/>
<path fill="#ED2384" stroke="#000000" stroke-miterlimit="10" d="M436.843,231.772l0.153-0.943
	C436.996,230.83,436.937,231.15,436.843,231.772z"/>
<path fill="#DD4197" stroke="#000000" stroke-width="3" stroke-miterlimit="10" d="M295.583,408.125
	c0,0-52.084,104.166-51.042,127.083c1.042,9.375-20.833,20.833,203.125,21.875c0,0,94.791,0,113.541-12.5
	c5.209-5.208,20.834-14.583-57.291-143.75c-39.584-2.083-34.883-14.584-66.921,0c-17.454,2.084-42.455,9.375-65.371,1.042
	C354.958,398.75,320.583,396.667,295.583,408.125z"/>
<path fill="none" stroke="#000000" stroke-width="3" stroke-miterlimit="10" d="M295.583,408.125c0,0,32.91-97.498,34.684-176.354"
	/>
<path fill="none" stroke="#000000" stroke-width="3" stroke-miterlimit="10" d="M503.917,400.833c0,0-43.75-117.09-46.875-170.003"
	/>
<ellipse fill="#E588B8" stroke="#DD4197" stroke-miterlimit="10" cx="345.845" cy="382.066" rx="15.104" ry="11.797"/>
<ellipse fill="#E588B8" stroke="#DD4197" stroke-miterlimit="10" cx="430.072" cy="282.604" rx="7.813" ry="10.938"/>
<ellipse fill="#E588B8" stroke="#DD4197" stroke-miterlimit="10" cx="397.79" cy="230.829" rx="7.415" ry="5.208"/>
<circle fill="#E588B8" stroke="#DD4197" stroke-miterlimit="10" cx="382.041" cy="271.667" r="8.333"/>
<ellipse fill="#E588B8" stroke="#DD4197" stroke-miterlimit="10" cx="436.997" cy="366.823" rx="18.172" ry="15.625"/>
<ellipse fill="#E588B8" stroke="#DD4197" stroke-miterlimit="10" cx="376.833" cy="336.25" rx="13.542" ry="9.896"/>
<ellipse fill="#E588B8" stroke="#DD4197" stroke-miterlimit="10" cx="382.042" cy="113.333" rx="9.896" ry="11.979"/>
<ellipse fill="#E588B8" stroke="#DD4197" stroke-miterlimit="10" cx="415.375" cy="157.084" rx="15.104" ry="17.448"/>
<ellipse fill="#E588B8" stroke="#DD4197" stroke-miterlimit="10" cx="351.422" cy="164.896" rx="5.577" ry="7.813"/>
<ellipse fill="#E588B8" stroke="#DD4197" stroke-miterlimit="10" cx="365.375" cy="61.25" rx="13.671" ry="11.458"/>
<ellipse fill="#E588B8" stroke="#DD4197" stroke-miterlimit="10" cx="427.833" cy="92.76" rx="9.009" ry="8.594"/>
<g>
	<path d="M292.604,458.281h2.247l-4.327,63.128h9.192l-0.437,6.239H287.84L292.604,458.281z"/>
	<path d="M310.279,512.881l-2.751,16.12l-2.045-2.496l9.158-53.039h2.884l1.845,53.039l-2.382,2.496l-0.503-16.12H310.279z
		 M315.513,481.577l-4.193,25.063h4.964L315.513,481.577z"/>
	<path d="M326.513,527.648l0.436-6.239h1.812l2.851-41.704H329.8l0.436-6.239h5.501c4.428,0,5.971,5.198,5.334,14.454
		c-0.302,4.68-1.241,8.842-2.75,11.129c1.812,1.872,2.516,6.967,2.113,13.104c-0.671,9.774-3.153,15.495-6.81,15.495H326.513z
		 M333.625,521.409c1.979,0,3.924-1.353,4.428-8.737c0.37-5.407-0.469-9.774-2.616-9.774h-3.153l-1.275,18.512H333.625z
		 M335.201,496.655c1.946,0,3.186-3.846,3.522-8.735c0.436-6.446-0.906-8.215-2.482-8.215h-2.382l-1.173,16.95H335.201z"/>
	<path d="M360.659,500.608c-0.301,4.368-2.012,27.976-8.117,27.976c-2.818,0-5.77-6.239-4.293-27.976
		c1.475-21.632,5.266-28.08,8.151-28.08C359.184,472.528,362.168,478.77,360.659,500.608z M350.596,500.608
		c-0.537,7.903-1.006,21.426,2.382,21.426c3.387,0,4.796-13.522,5.333-21.426c0.57-8.009,1.007-21.528-2.381-21.528
		C352.542,479.08,351.166,492.6,350.596,500.608z"/>
	<path d="M371.392,473.466h5.937c2.919,0,4.931,4.263,4.227,14.767c-0.47,6.656-2.348,13.209-4.595,15.186l2.784,21.943l-2.214,3.64
		l-2.784-24.545h-3.253l-1.577,23.192h-2.248L371.392,473.466z M374.88,498.217c2.213,0,3.891-3.848,4.327-9.984
		c0.335-4.889-0.369-8.527-2.382-8.527h-3.623l-1.274,18.512H374.88z"/>
	<path d="M390.778,512.881l-2.75,16.12l-2.046-2.496l9.158-53.039h2.884l1.846,53.039l-2.382,2.496l-0.503-16.12H390.778z
		 M396.011,481.577l-4.193,25.063h4.965L396.011,481.577z"/>
	<path d="M415.197,479.705h-4.83l0.435-6.239h11.809l-0.437,6.239h-4.73l-3.286,47.943h-2.248L415.197,479.705z"/>
	<path d="M429.954,521.409h2.449l2.851-41.704h-2.449l0.437-6.239h7.179l-0.436,6.239h-2.483l-2.851,41.704h2.482l-0.436,6.239
		h-7.179L429.954,521.409z"/>
	<path d="M461.282,500.608c-0.302,4.368-2.012,27.976-8.117,27.976c-2.818,0-5.77-6.239-4.293-27.976
		c1.475-21.632,5.266-28.08,8.15-28.08C459.807,472.528,462.792,478.77,461.282,500.608z M451.219,500.608
		c-0.536,7.903-1.006,21.426,2.383,21.426c3.388,0,4.796-13.522,5.332-21.426c0.571-8.009,1.007-21.528-2.381-21.528
		S451.79,492.6,451.219,500.608z"/>
	<path d="M471.243,473.466h2.784l3.623,45.654l0.101-0.207l0.771-14.04l2.147-31.407h2.247l-3.724,54.183h-2.784l-3.655-45.656
		l-0.067,0.209l-0.772,14.144l-2.146,31.304h-2.247L471.243,473.466z"/>
	<path d="M492.408,473.466h10.901l-0.435,6.239h-8.656l-1.106,16.223h7.146l-0.437,6.241h-7.145l-1.308,19.24h8.653l-0.437,6.239
		h-10.901L492.408,473.466z"/>
	<path d="M512.265,473.466h5.937c2.919,0,4.932,4.263,4.228,14.767c-0.47,6.656-2.349,13.209-4.596,15.186l2.784,21.943l-2.215,3.64
		l-2.783-24.545h-3.255l-1.575,23.192h-2.249L512.265,473.466z M515.753,498.217c2.214,0,3.891-3.848,4.327-9.984
		c0.336-4.889-0.369-8.527-2.381-8.527h-3.624l-1.273,18.512H515.753z"/>
</g>
</svg>
